#!OML:ASF H:\Pregnant\Project 1\Capture day 1\Session 1\femalepreg.ASF
:FULLY-SPECIFIED
:DEGREES
435
root 16.5572 14.9606 29.7191 381.091 -99.7968 -358.478
lowerback -10.7739 7.75281 -6.07784
upperback -3.75064 10.8847 -6.00268
thorax 2.08544 5.32696 -1.56405
lowerneck -30.0177 0.477046 -0.47395
upperneck 11.2906 1.32677 -3.08694
head 8.28859 0.203988 -0.801916
rclavicle 1.98785e-016 1.90833e-014
rhumerus -13.4227 60.9758 -100.318
rradius 105.131
rwrist -28.0715
rhand 8.94115 -25.4725
rfingers 7.12502
rthumb 34.1214 -52.2292
lclavicle 1.98785e-016 1.90833e-014
lhumerus -63.6394 25.9301 10.2253
lradius 35.1073
lwrist 46.0734
lhand -39.9939 7.99331
lfingers 7.12502
lthumb -12.9619 37.5707
rfemur -48.2401 15.6132 14.549
rtibia 81.9101
rfoot -14.5845 -14.4665
rtoes -2.50543
lfemur -40.9198 -12.3173 -15.0269
ltibia 34.3206
lfoot -16.554 5.09096
ltoes -7.66369
436
root 16.5693 15.0071 29.6948 380.813 -100.235 -357.987
lowerback -10.9384 7.77002 -5.87711
upperback -3.88768 10.8871 -5.93871
thorax 2.05589 5.32923 -1.59041
lowerneck -30.0074 0.584685 -0.406156
upperneck 11.3686 1.45789 -3.14214
head 8.31733 0.261868 -0.812069
rclavicle -2.5842e-014 3.65764e-014
rhumerus -13.978 61.5009 -100.648
rradius 104.642
rwrist -28.1363
rhand 9.7217 -24.7446
rfingers 7.12502
rthumb 34.8623 -51.3327
lclavicle -2.5842e-014 3.65764e-014
lhumerus -64.5289 26.1579 10.655
lradius 34.623
lwrist 46.3427
lhand -39.8276 7.76538
lfingers 7.12502
lthumb -12.8016 37.3529
rfemur -48.5952 15.6786 13.7306
rtibia 80.527
rfoot -14.8866 -14.4148
rtoes -2.43484
lfemur -40.4622 -12.3183 -14.7545
ltibia 33.2045
lfoot -16.0772 5.62331
ltoes -7.84032
437
root 16.5806 15.0518 29.6688 380.604 -100.654 -357.57
lowerback -11.0996 7.76713 -5.68235
upperback -4.03707 10.8604 -5.87539
thorax 2.01061 5.31677 -1.61945
lowerneck -29.9747 0.721011 -0.281405
upperneck 11.4741 1.606 -3.19336
head 8.35308 0.331231 -0.827142
rclavicle -8.24956e-014 -7.95139e-016
rhumerus -14.6001 61.9696 -101.007
rradius 104.079
rwrist -28.2868
rhand 10.6835 -24.0153
rfingers 7.12502
rthumb 35.7743 -50.3869
lclavicle -8.24956e-014 -7.95139e-016
lhumerus -65.4262 26.5069 10.9665
lradius 34.046
lwrist 46.6147
lhand -39.6107 7.30647
lfingers 7.12502
lthumb -12.5925 36.9069
rfemur -48.9057 15.7682 12.9102
rtibia 79.0152
rfoot -15.2046 -14.4909
rtoes -2.27086
lfemur -39.9975 -12.3461 -14.4774
ltibia 32.0899
lfoot -15.595 6.17128
ltoes -8.06506
438
root 16.5911 15.0949 29.6411 380.499 -101.056 -357.267
lowerback -11.2588 7.72884 -5.51218
upperback -4.19439 10.7864 -5.80119
thorax 1.9492 5.28048 -1.63163
lowerneck -29.9289 0.899865 -0.0968531
upperneck 11.6102 1.7898 -3.24607
head 8.39882 0.42023 -0.846672
rclavicle 7.37491e-014 -3.49861e-014
rhumerus -15.2745 62.3962 -101.421
rradius 103.441
rwrist -28.5373
rhand 11.8468 -23.3413
rfingers 7.12502
rthumb 36.8758 -49.4378
lclavicle 7.37491e-014 -3.49861e-014
lhumerus -66.3715 26.9717 11.1271
lradius 33.3686
lwrist 46.8436
lhand -39.3126 6.77857
lfingers 7.12502
lthumb -12.3051 36.3965
rfemur -49.1676 15.8792 12.0796
rtibia 77.3828
rfoot -15.5309 -14.679
rtoes -2.16225
lfemur -39.5232 -12.4099 -14.2029
ltibia 30.9763
lfoot -15.1045 6.73621
ltoes -8.3584
439
root 16.6009 15.1362 29.611 380.466 -101.434 -357.045
lowerback -11.4061 7.6876 -5.33696
upperback -4.36427 10.7047 -5.74903
thorax 1.87301 5.23991 -1.67286
lowerneck -29.8608 1.08312 0.132594
upperneck 11.7671 1.95863 -3.2726
head 8.44854 0.507964 -0.866341
rclavicle 8.96519e-014 1.98785e-014
rhumerus -15.9809 62.69 -101.867
rradius 102.739
rwrist -28.8945
rhand 13.1637 -22.7372
rfingers 7.12502
rthumb 38.1204 -48.5035
lclavicle 8.96519e-014 1.98785e-014
lhumerus -67.254 27.5364 11.1721
lradius 32.5862
lwrist 46.9763
lhand -38.9239 6.19025
lfingers 7.12502
lthumb -11.9303 35.8303
rfemur -49.3755 15.999 11.2547
rtibia 75.636
rfoot -15.8743 -14.9599
rtoes -2.16547
lfemur -39.0403 -12.5129 -13.9214
ltibia 29.8646
lfoot -14.5988 7.31897
ltoes -8.80321
440
root 16.6105 15.1753 29.5791 380.556 -101.786 -356.948
lowerback -11.5482 7.63367 -5.16526
upperback -4.54606 10.6039 -5.71497
thorax 1.78399 5.18908 -1.73513
lowerneck -29.7878 1.27234 0.41093
upperneck 11.9613 2.11577 -3.28373
head 8.51088 0.59465 -0.890102
rclavicle 7.87187e-014 -6.20208e-014
rhumerus -16.7106 62.8628 -102.352
rradius 101.962
rwrist -29.3481
rhand 14.5802 -22.2513
rfingers 7.12502
rthumb 39.4564 -47.639
lclavicle 7.87187e-014 -6.20208e-014
lhumerus -68.1248 28.2085 11.0656
lradius 31.7251
lwrist 46.9586
lhand -38.4876 5.75522
lfingers 7.12502
lthumb -11.5095 35.4192
rfemur -49.5409 16.1282 10.4155
rtibia 73.7784
rfoot -16.2441 -15.3
rtoes -2.18394
lfemur -38.5634 -12.667 -13.6392
ltibia 28.7559
lfoot -14.0749 7.92141
ltoes -9.3627
441
root 16.6195 15.2119 29.5442 380.686 -102.11 -356.902
lowerback -11.6818 7.57906 -4.99366
upperback -4.72971 10.5007 -5.69578
thorax 1.69064 5.13634 -1.81455
lowerneck -29.7078 1.4596 0.723207
upperneck 12.1736 2.25676 -3.28657
head 8.57882 0.676834 -0.918746
rclavicle -3.95581e-014 -2.3059e-014
rhumerus -17.4329 62.9147 -102.814
rradius 101.127
rwrist -29.8927
rhand 16.0111 -21.9127
rfingers 7.12502
rthumb 40.8025 -46.8916
lclavicle -3.95581e-014 -2.3059e-014
lhumerus -68.9267 28.9607 10.8744
lradius 30.7912
lwrist 46.8201
lhand -38.0574 5.54514
lfingers 7.12502
lthumb -11.0946 35.2319
rfemur -49.6408 16.2626 9.59686
rtibia 71.8125
rfoot -16.6356 -15.687
rtoes -2.27025
lfemur -38.0768 -12.8525 -13.3469
ltibia 27.6545
lfoot -13.5576 8.51879
ltoes -9.9169
442
root 16.6283 15.2458 29.5075 380.83 -102.399 -356.877
lowerback -11.7976 7.54048 -4.79856
upperback -4.91896 10.4143 -5.68914
thorax 1.58794 5.09153 -1.92018
lowerneck -29.5847 1.61117 1.00053
upperneck 12.3807 2.36034 -3.26973
head 8.63726 0.742975 -0.940737
rclavicle -4.65156e-014 5.08889e-014
rhumerus -18.1494 62.808 -103.227
rradius 100.234
rwrist -30.4973
rhand 17.3812 -21.7553
rfingers 7.12502
rthumb 42.0881 -46.3158
lclavicle -4.65156e-014 5.08889e-014
lhumerus -69.6763 29.8058 10.6117
lradius 29.8328
lwrist 46.506
lhand -37.6993 5.6781
lfingers 7.12502
lthumb -10.7492 35.3831
rfemur -49.6785 16.4058 8.7963
rtibia 69.7358
rfoot -17.0387 -16.0866
rtoes -2.23925
lfemur -37.5956 -13.0417 -13.0492
ltibia 26.5663
lfoot -13.0533 9.07333
ltoes -10.3892
443
root 16.6369 15.2764 29.4688 381.018 -102.654 -356.901
lowerback -11.9153 7.4893 -4.60513
upperback -5.10825 10.3108 -5.68892
thorax 1.48636 5.0372 -2.03378
lowerneck -29.4288 1.7654 1.29477
upperneck 12.5784 2.45866 -3.23893
head 8.6874 0.810054 -0.961368
rclavicle 4.8901e-014 -8.11041e-014
rhumerus -18.8335 62.5912 -103.646
rradius 99.2571
rwrist -31.1286
rhand 18.642 -21.7985
rfingers 7.12502
rthumb 43.268 -45.9491
lclavicle 4.8901e-014 -8.11041e-014
lhumerus -70.4015 30.7027 10.2761
lradius 28.8647
lwrist 46.0826
lhand -37.4765 6.22038
lfingers 7.12502
lthumb -10.5343 35.9364
rfemur -49.6563 16.5585 8.00799
rtibia 67.5507
rfoot -17.4232 -16.5049
rtoes -2.22442
lfemur -37.1263 -13.2183 -12.7588
ltibia 25.4943
lfoot -12.569 9.57148
ltoes -10.7618
444
root 16.6453 15.304 29.4272 381.158 -102.867 -356.885
lowerback -12.0341 7.42363 -4.41135
upperback -5.2923 10.188 -5.67479
thorax 1.38744 4.97271 -2.13569
lowerneck -29.2245 1.92484 1.59019
upperneck 12.7488 2.56387 -3.20792
head 8.72097 0.881461 -0.98117
rclavicle 1.74931e-013 -6.83819e-014
rhumerus -19.4887 62.2939 -104.044
rradius 98.2092
rwrist -31.7725
rhand 19.7123 -22.0399
rfingers 7.12502
rthumb 44.267 -45.8225
lclavicle 1.74931e-013 -6.83819e-014
lhumerus -71.121 31.6434 9.90165
lradius 27.9154
lwrist 45.5706
lhand -37.4166 7.2009
lfingers 7.12502
lthumb -10.4765 36.9198
rfemur -49.5616 16.7243 7.26302
rtibia 65.2564
rfoot -17.7645 -16.9198
rtoes -2.18854
lfemur -36.6609 -13.3878 -12.4487
ltibia 24.4371
lfoot -12.1095 10.0198
ltoes -11.0259
445
root 16.6535 15.329 29.3836 381.287 -103.035 -356.866
lowerback -12.1489 7.36172 -4.19925
upperback -5.47598 10.0678 -5.67233
thorax 1.29131 4.90854 -2.25972
lowerneck -28.9752 2.06206 1.86455
upperneck 12.8991 2.64129 -3.14045
head 8.73896 0.94401 -0.989414
rclavicle -1.10127e-013 -4.21423e-014
rhumerus -20.1185 61.8725 -104.406
rradius 97.1036
rwrist -32.4083
rhand 20.4834 -22.3908
rfingers 7.12502
rthumb 44.9851 -45.8962
lclavicle -1.10127e-013 -4.21423e-014
lhumerus -71.73 32.5805 9.58523
lradius 26.9991
lwrist 45.0198
lhand -37.5277 8.57167
lfingers 7.12502
lthumb -10.5837 38.2852
rfemur -49.3987 16.8997 6.54907
rtibia 62.8584
rfoot -18.0284 -17.3101
rtoes -2.23157
lfemur -36.2026 -13.5636 -12.1239
ltibia 23.3903
lfoot -11.6632 10.4317
ltoes -11.262
